<svg xmlns="http://www.w3.org/2000/svg">
    <symbol id="floppy" fill="currentColor">
        <rect width="3.00001" height="3" fill="currentColor"/>
        <rect y="3" width="3.00001" height="3" fill="currentColor"/>
        <rect y="6" width="3.00001" height="3" fill="currentColor"/>
        <rect y="9" width="3.00001" height="3" fill="currentColor"/>
        <rect y="12" width="3.00001" height="3" fill="currentColor"/>
        <rect y="15" width="3.00001" height="3" fill="currentColor"/>
        <rect y="18" width="3.00001" height="3" fill="currentColor"/>
        <rect y="21" width="3.00001" height="3" fill="currentColor"/>
        <rect y="24" width="3.00001" height="3" fill="currentColor"/>
        <rect y="27" width="3.00001" height="3" fill="currentColor"/>
        <rect y="30" width="3.00001" height="3" fill="currentColor"/>
        <rect y="33" width="3.00001" height="3" fill="currentColor"/>
        <rect y="36" width="3.00001" height="3" fill="currentColor"/>
        <rect x="33" width="3" height="3.00001" transform="rotate(90 33 0)" fill="currentColor"/>
        <rect x="30.0031" width="3" height="3.00001" transform="rotate(90 30.0031 0)" fill="currentColor"/>
        <rect x="26.9998" width="3" height="3.00001" transform="rotate(90 26.9998 0)" fill="currentColor"/>
        <rect x="23.9998" width="3" height="3.00001" transform="rotate(90 23.9998 0)" fill="currentColor"/>
        <rect x="20.999" width="3" height="3.00001" transform="rotate(90 20.999 0)" fill="currentColor"/>
        <rect x="17.9998" width="3" height="3.00001" transform="rotate(90 17.9998 0)" fill="currentColor"/>
        <rect x="14.999" width="3" height="3.00001" transform="rotate(90 14.999 0)" fill="currentColor"/>
        <rect x="11.9999" width="3" height="3.00001" transform="rotate(90 11.9999 0)" fill="currentColor"/>
        <rect x="8.99609" width="3" height="3.00001" transform="rotate(90 8.99609 0)" fill="currentColor"/>
        <rect x="5.99994" width="3" height="3.00001" transform="rotate(90 5.99994 0)" fill="currentColor"/>
        <rect x="36.0008" y="3" width="3" height="3.00001" transform="rotate(90 36.0008 3)" fill="currentColor"/>
        <rect x="8.99609" y="6" width="3" height="3.00001" transform="rotate(90 8.99609 6)" fill="currentColor"/>
        <rect x="8.99609" y="3" width="3" height="3.00001" transform="rotate(90 8.99609 3)" fill="currentColor"/>
        <rect x="8.99609" y="9" width="3" height="3.00001" transform="rotate(90 8.99609 9)" fill="currentColor"/>
        <rect x="30.0031" y="6" width="3" height="3.00001" transform="rotate(90 30.0031 6)" fill="currentColor"/>
        <rect x="30.0031" y="3" width="3" height="3.00001" transform="rotate(90 30.0031 3)" fill="currentColor"/>
        <rect x="30.0031" y="9" width="3" height="3.00001" transform="rotate(90 30.0031 9)" fill="currentColor"/>
        <rect x="23.9998" y="6" width="3" height="3.00001" transform="rotate(90 23.9998 6)" fill="currentColor"/>
        <rect x="23.9998" y="3" width="3" height="3.00001" transform="rotate(90 23.9998 3)" fill="currentColor"/>
        <rect x="23.9998" y="9" width="3" height="3.00001" transform="rotate(90 23.9998 9)" fill="currentColor"/>
        <rect x="30.0031" y="12" width="3" height="3.00001" transform="rotate(90 30.0031 12)" fill="currentColor"/>
        <rect x="26.9998" y="12" width="3" height="3.00001" transform="rotate(90 26.9998 12)" fill="currentColor"/>
        <rect x="23.9998" y="12" width="3" height="3.00001" transform="rotate(90 23.9998 12)" fill="currentColor"/>
        <rect x="20.999" y="12" width="3" height="3.00001" transform="rotate(90 20.999 12)" fill="currentColor"/>
        <rect x="17.9998" y="12" width="3" height="3.00001" transform="rotate(90 17.9998 12)" fill="currentColor"/>
        <rect x="14.999" y="12" width="3" height="3.00001" transform="rotate(90 14.999 12)" fill="currentColor"/>
        <rect x="11.9999" y="12" width="3" height="3.00001" transform="rotate(90 11.9999 12)" fill="currentColor"/>
        <rect x="8.99609" y="12" width="3" height="3.00001" transform="rotate(90 8.99609 12)" fill="currentColor"/>
        <rect x="33" y="21" width="3" height="3.00001" transform="rotate(90 33 21)" fill="currentColor"/>
        <rect x="30.0031" y="21" width="3" height="3.00001" transform="rotate(90 30.0031 21)" fill="currentColor"/>
        <rect x="26.9998" y="21" width="3" height="3.00001" transform="rotate(90 26.9998 21)" fill="currentColor"/>
        <rect x="23.9998" y="21" width="3" height="3.00001" transform="rotate(90 23.9998 21)" fill="currentColor"/>
        <rect x="20.999" y="21" width="3" height="3.00001" transform="rotate(90 20.999 21)" fill="currentColor"/>
        <rect x="17.9998" y="21" width="3" height="3.00001" transform="rotate(90 17.9998 21)" fill="currentColor"/>
        <rect x="14.999" y="21" width="3" height="3.00001" transform="rotate(90 14.999 21)" fill="currentColor"/>
        <rect x="11.9999" y="21" width="3" height="3.00001" transform="rotate(90 11.9999 21)" fill="currentColor"/>
        <rect x="8.99609" y="21" width="3" height="3.00001" transform="rotate(90 8.99609 21)" fill="currentColor"/>
        <rect x="33" y="24" width="3" height="3.00001" transform="rotate(90 33 24)" fill="currentColor"/>
        <rect x="8.99609" y="24" width="3" height="3.00001" transform="rotate(90 8.99609 24)" fill="currentColor"/>
        <rect x="33" y="27" width="3" height="3.00001" transform="rotate(90 33 27)" fill="currentColor"/>
        <rect x="8.99609" y="27" width="3" height="3.00001" transform="rotate(90 8.99609 27)" fill="currentColor"/>
        <rect x="33" y="30" width="3" height="3.00001" transform="rotate(90 33 30)" fill="currentColor"/>
        <rect x="8.99609" y="30" width="3" height="3.00001" transform="rotate(90 8.99609 30)" fill="currentColor"/>
        <rect x="8.99609" y="33" width="3" height="3.00001" transform="rotate(90 8.99609 33)" fill="currentColor"/>
        <rect x="33" y="33" width="3" height="3.00001" transform="rotate(90 33 33)" fill="currentColor"/>
        <rect x="36.0008" y="36" width="3" height="3.00001" transform="rotate(90 36.0008 36)" fill="currentColor"/>
        <rect x="33" y="36" width="3" height="3.00001" transform="rotate(90 33 36)" fill="currentColor"/>
        <rect x="30.0031" y="36" width="3" height="3.00001" transform="rotate(90 30.0031 36)" fill="currentColor"/>
        <rect x="26.9998" y="36" width="3" height="3.00001" transform="rotate(90 26.9998 36)" fill="currentColor"/>
        <rect x="23.9998" y="36" width="3" height="3.00001" transform="rotate(90 23.9998 36)" fill="currentColor"/>
        <rect x="20.999" y="36" width="3" height="3.00001" transform="rotate(90 20.999 36)" fill="currentColor"/>
        <rect x="17.9998" y="36" width="3" height="3.00001" transform="rotate(90 17.9998 36)" fill="currentColor"/>
        <rect x="14.999" y="36" width="3" height="3.00001" transform="rotate(90 14.999 36)" fill="currentColor"/>
        <rect x="11.9999" y="36" width="3" height="3.00001" transform="rotate(90 11.9999 36)" fill="currentColor"/>
        <rect x="8.99609" y="36" width="3" height="3.00001" transform="rotate(90 8.99609 36)" fill="currentColor"/>
        <rect x="5.99994" y="36" width="3" height="3.00001" transform="rotate(90 5.99994 36)" fill="currentColor"/>
        <rect x="39" y="39" width="3.00001" height="3" transform="rotate(-180 39 39)" fill="currentColor"/>
        <rect x="39" y="36" width="3.00001" height="3" transform="rotate(-180 39 36)" fill="currentColor"/>
        <rect x="39" y="33" width="3.00001" height="3" transform="rotate(-180 39 33)" fill="currentColor"/>
        <rect x="39" y="30" width="3.00001" height="3" transform="rotate(-180 39 30)" fill="currentColor"/>
        <rect x="39" y="27" width="3.00001" height="3" transform="rotate(-180 39 27)" fill="currentColor"/>
        <rect x="39" y="24" width="3.00001" height="3" transform="rotate(-180 39 24)" fill="currentColor"/>
        <rect x="39" y="21" width="3.00001" height="3" transform="rotate(-180 39 21)" fill="currentColor"/>
        <rect x="39" y="18" width="3.00001" height="3" transform="rotate(-180 39 18)" fill="currentColor"/>
        <rect x="39" y="15" width="3.00001" height="3" transform="rotate(-180 39 15)" fill="currentColor"/>
        <rect x="39" y="12" width="3.00001" height="3" transform="rotate(-180 39 12)" fill="currentColor"/>
        <rect x="39" y="9" width="3.00001" height="3" transform="rotate(-180 39 9)" fill="currentColor"/>
    </symbol>
    <use href="#floppy" /> 
</svg>





<svg width="39" height="36" viewBox="0 0 39 36" fill="none" xmlns="http://www.w3.org/2000/svg">
    <path d="M12 6H9V9H12V6ZM15 6H12V9H15V6ZM9 9H6V12H9V9ZM9 12H6V15H9V12ZM9 15H6V18H9V15ZM18 6H15V9H18V6ZM12 18H9V21H12V18ZM15 21H12V24H15V21ZM18 24H15V27H18V24ZM27 6H30V9H27V6ZM24 6H27V9H24V6ZM30 9H33V12H30V9ZM30 12H33V15H30V12ZM30 15H33V18H30V15ZM21 6H24V9H21V6ZM27 18H30V21H27V18ZM24 21H27V24H24V21ZM21 24H24V27H21V24ZM21 27H18V30H21V27ZM21 9H18V12H21V9Z" fill="black"/>
    <path d="M12 9H9V12H12V9ZM15 12H12V15H15V12ZM18 9H15V12H18V9ZM12 15H9V18H12V15ZM15 15H12V18H15V15ZM15 18H12V21H15V18ZM18 12H15V15H18V12ZM18 21H15V24H18V21ZM18 18H15V21H18V18ZM27 9H30V12H27V9ZM24 9H27V12H24V9ZM27 12H30V15H27V12ZM24 12H27V15H24V12ZM21 9H24V12H21V9ZM27 15H30V18H27V15ZM24 15H27V18H24V15ZM24 18H27V21H24V18ZM21 12H24V15H21V12ZM21 21H24V24H21V21ZM21 18H24V21H21V18ZM21 21H18V24H21V21ZM21 24H18V27H21V24Z" fill="#FF0000"/>
    <path d="M18 15H15V18H18V15ZM21 15H24V18H21V15ZM21 15H18V18H21V15ZM21 12H18V15H21V12ZM21 18H18V21H21V18Z" fill="white"/>
    <path d="M36 13H39V16H36V13ZM27 27H30V30H27V27ZM18 33H21V36H18V33ZM9 27H12V30H9V27ZM24 0H27V3H24V0ZM33 3H36V6H33V3ZM3 3H6V6H3V3ZM12 0H15V3H12V0ZM0 13H3V16H0V13Z" fill="#FF0000"/>
</svg>
